<svg fill="none" height="96" viewBox="0 0 580 96" width="580" xmlns="http://www.w3.org/2000/svg"><path d="m34.0109 96c-6.4569 0-12.6324-.5673-18.1665-1.6823-8.70164-1.7529-11.1323-3.1659-15.8444-5.7136v-15.8949c7.65847 6.4599 24.7765 10.6284 40.6851 9.5683 17.1141-1.1385 32.9349-6.2965 42.3238-13.7969 11.4792-9.171 22.0361-16.3551 32.2701-21.9602 12.949-7.0939 25.346-11.7042 37.902-14.095 14.344-2.7536 29.113-2.3942 43.306 1.0536 7.73 1.8666 15.548 4.6796 23.237 8.3658 8.001 3.8312 16.1 8.7187 24.068 14.5237 15.668 11.4154 31.208 19.1694 44.939 22.4255 11.929 2.8287 22.062 2.2391 29.303-1.6993 3.534-1.9254 7.055-4.7685 10.782-7.7776 6.555-5.2939 13.983-11.2924 24.416-14.9381 11.911-4.1619 25.451-4.3868 41.4-.6888 33.363 7.7344 52.346-8.1527 77.5-33.2722 6.559-6.5489 13.543-11.60754 20.76-15.03227 6.737-3.21167 13.684-4.994623 20.643-5.3305609 12.304-.5818041 24.38 3.4548409 33.854 11.3160309 7.766 6.4181 14.934 11.9016 20.728 15.857 8.704 5.9423 10.585 6.4469 11.135 6.5541v13.7969c-2.584-.5058-8.508-2.2117-18.762-9.2115-6.13-4.1828-13.639-9.9251-21.718-16.6008-12.93-10.6859-34.716-14.14856-57.08 8.1854-12.405 12.3879-24.739 24.1156-39.158 31.454-7.667 3.9005-15.326 6.2743-23.415 7.2416-8.728 1.0457-17.736.4536-27.541-1.8196-29.676-6.8795-42.174 3.2143-54.261 12.9748-4.216 3.3986-8.199 6.6207-12.808 9.1318-10.218 5.5658-23.669 6.5984-38.898 2.9881-7.606-1.8039-15.618-4.758-23.815-8.7801-8.496-4.1698-17.233-9.5095-25.967-15.8741-22.816-16.6217-43.98-23.0359-63.409-23.0359-31.749 0-58.852 17.1237-80.966 34.7911-6.0642 4.8443-13.8248 8.7946-23.067 11.7422-8.2946 2.6417-17.5618 4.3645-26.8027 4.9789-2.5524.1699-5.0838.2549-7.5734.2549z" fill="#071d4f"/></svg>