<svg width="80" height="80" viewBox="0 0 80 80" fill="none" xmlns="http://www.w3.org/2000/svg">
<rect x="1" y="1" width="78" height="78" rx="39" fill="#0D1830" stroke="url(#paint0_linear_1014_21645)" stroke-width="2"/>
<path opacity="0.3" fill-rule="evenodd" clip-rule="evenodd" d="M29.6074 32.697C29.6074 36.1147 32.378 38.8853 35.7957 38.8853C39.2133 38.8853 41.9839 36.1147 41.9839 32.697C41.9839 29.2794 39.2133 26.5088 35.7957 26.5088C32.378 26.5088 29.6074 29.2794 29.6074 32.697ZM45.0771 38.8853C45.0771 41.4486 47.155 43.5265 49.7183 43.5265C52.2815 43.5265 54.3595 41.4486 54.3595 38.8853C54.3595 36.3221 52.2815 34.2442 49.7183 34.2442C47.155 34.2442 45.0771 36.3221 45.0771 38.8853Z" fill="#3179FF"/>
<path fill-rule="evenodd" clip-rule="evenodd" d="M35.7669 41.9795C28.4626 41.9795 22.4698 45.7335 21.8701 53.1171C21.8375 53.5193 22.6066 54.356 22.9946 54.356H48.5508C49.713 54.356 49.731 53.4207 49.713 53.1183C49.2596 45.5272 43.174 41.9795 35.7669 41.9795ZM49.0991 45.0749C51.0409 47.6603 52.1915 50.8739 52.1916 54.3563H58.1591C58.9984 54.3563 59.0115 53.6549 58.9984 53.4281C58.6746 47.7962 54.3702 45.1317 49.0991 45.0749Z" fill="#3179FF"/>
<defs>
<linearGradient id="paint0_linear_1014_21645" x1="4" y1="-1.94141e-07" x2="70.8571" y2="75.4286" gradientUnits="userSpaceOnUse">
<stop stop-color="#7BD0FA" stop-opacity="0"/>
<stop offset="0.524768" stop-color="#7BD0FA" stop-opacity="0.3"/>
<stop offset="1" stop-color="#7BD0FA" stop-opacity="0"/>
</linearGradient>
</defs>
</svg>
