<svg width="80" height="80" viewBox="0 0 80 80" fill="none" xmlns="http://www.w3.org/2000/svg">
<rect x="1" y="1" width="78" height="78" rx="39" fill="#0D1830" stroke="url(#paint0_linear_1014_21702)" stroke-width="2"/>
<path opacity="0.4" fill-rule="evenodd" clip-rule="evenodd" d="M52.9285 44.4419C54.1791 44.4419 55.1929 43.4281 55.1929 42.1775C55.1929 40.9269 54.1791 39.9131 52.9285 39.9131C51.6779 39.9131 50.6641 40.9269 50.6641 42.1775C50.6641 43.4281 51.6779 44.4419 52.9285 44.4419Z" fill="#3179FF"/>
<rect opacity="0.4" x="25.6055" y="32.0332" width="27.1732" height="10.5673" rx="0.685593" transform="rotate(-15 25.6055 32.0332)" fill="#3179FF"/>
<path fill-rule="evenodd" clip-rule="evenodd" d="M26.3712 29.8457C25.6139 29.8457 25 30.4596 25 31.2169V52.6284C25 53.3857 25.6139 53.9996 26.3712 53.9996H53.8212C54.5785 53.9996 55.1924 53.3857 55.1924 52.6284V47.4523C54.506 47.7784 53.7382 47.9609 52.9278 47.9609C50.0097 47.9609 47.6441 45.5953 47.6441 42.6772C47.6441 39.7591 50.0097 37.3935 52.9278 37.3935C53.7382 37.3935 54.506 37.576 55.1924 37.9021V31.2169C55.1924 30.4596 54.5785 29.8457 53.8212 29.8457H26.3712Z" fill="#3179FF"/>
<defs>
<linearGradient id="paint0_linear_1014_21702" x1="4" y1="-1.94141e-07" x2="70.8571" y2="75.4286" gradientUnits="userSpaceOnUse">
<stop stop-color="#7BD0FA" stop-opacity="0"/>
<stop offset="0.524768" stop-color="#7BD0FA" stop-opacity="0.3"/>
<stop offset="1" stop-color="#7BD0FA" stop-opacity="0"/>
</linearGradient>
</defs>
</svg>
