<svg width="80" height="80" viewBox="0 0 80 80" fill="none" xmlns="http://www.w3.org/2000/svg">
<rect x="1" y="1" width="78" height="78" rx="39" fill="#0D1830" stroke="url(#paint0_linear_1014_21675)" stroke-width="2"/>
<path fill-rule="evenodd" clip-rule="evenodd" d="M41.298 35.4659C40.9681 35.7108 40.5 35.4753 40.5 35.0644V25.5009C40.5 25.0893 40.9695 24.854 41.2992 25.1003L47.7213 29.8971C47.9896 30.0974 47.989 30.4997 47.7201 30.6992L41.298 35.4659ZM31.25 50.902V47.202C28.1848 47.202 25.7 44.7172 25.7 41.652V39.802C25.7 35.7151 29.0131 32.402 33.1 32.402H40.4999V28.702H33.1C26.9696 28.702 22 33.6717 22 39.802V41.652C22 46.7606 26.1414 50.902 31.25 50.902Z" fill="#3179FF"/>
<path opacity="0.3" fill-rule="evenodd" clip-rule="evenodd" d="M49.7493 28.7021V32.4021C52.8145 32.4021 55.2993 34.887 55.2993 37.9521V39.8021C55.2993 43.889 51.9862 47.2021 47.8993 47.2021H40.6077V44.0011C40.6077 43.5895 40.1382 43.3542 39.8085 43.6005L33.3863 48.3972C33.1181 48.5976 33.1187 48.9998 33.3875 49.1993L39.8097 53.9661C40.1396 54.2109 40.6077 53.9754 40.6077 53.5646V50.9021H47.8993C54.0296 50.9021 58.9993 45.9325 58.9993 39.8021V37.9521C58.9993 32.8435 54.8579 28.7021 49.7493 28.7021Z" fill="#3179FF"/>
<defs>
<linearGradient id="paint0_linear_1014_21675" x1="4" y1="-1.94141e-07" x2="70.8571" y2="75.4286" gradientUnits="userSpaceOnUse">
<stop stop-color="#7BD0FA" stop-opacity="0"/>
<stop offset="0.524768" stop-color="#7BD0FA" stop-opacity="0.3"/>
<stop offset="1" stop-color="#7BD0FA" stop-opacity="0"/>
</linearGradient>
</defs>
</svg>
