<svg width="80" height="80" viewBox="0 0 80 80" fill="none" xmlns="http://www.w3.org/2000/svg">
<rect x="1" y="1" width="78" height="78" rx="39" fill="#0D1830" stroke="url(#paint0_linear_1014_21663)" stroke-width="2"/>
<rect opacity="0.3" x="38.4297" y="21" width="4" height="8" rx="1" fill="#3179FF"/>
<rect opacity="0.3" x="38.4297" y="49" width="4" height="10" rx="1" fill="#3179FF"/>
<path fill-rule="evenodd" clip-rule="evenodd" d="M46.416 33.0881C45.8587 32.3788 45.1303 31.8151 44.231 31.3971C43.3317 30.9791 42.464 30.7701 41.628 30.7701C41.1973 30.7701 40.7603 30.8081 40.317 30.8841C39.8737 30.9601 39.4747 31.1058 39.12 31.3211C38.7653 31.5364 38.4677 31.8151 38.227 32.1571C37.9863 32.4991 37.866 32.9361 37.866 33.4681C37.866 33.9241 37.961 34.3041 38.151 34.6081C38.341 34.9121 38.6197 35.1781 38.987 35.4061C39.3543 35.6341 39.7913 35.8431 40.298 36.0331C40.8047 36.2231 41.3747 36.4194 42.008 36.6221C42.92 36.9261 43.87 37.2618 44.858 37.6291C45.846 37.9964 46.7453 38.4841 47.556 39.0921C48.3667 39.7001 49.038 40.4538 49.57 41.3531C50.102 42.2524 50.368 43.3734 50.368 44.7161C50.368 46.2615 50.083 47.5978 49.513 48.7251C48.943 49.8525 48.1767 50.7834 47.214 51.5181C46.2513 52.2528 45.1493 52.7974 43.908 53.1521C42.6667 53.5068 41.3873 53.6841 40.07 53.6841C38.1447 53.6841 36.2827 53.3484 34.484 52.6771C32.6853 52.0058 31.1907 51.0495 30 49.8081L34.256 45.4761C34.9147 46.2868 35.7823 46.9644 36.859 47.5091C37.9357 48.0538 39.006 48.3261 40.07 48.3261C40.5513 48.3261 41.02 48.2754 41.476 48.1741C41.932 48.0728 42.331 47.9081 42.673 47.6801C43.015 47.4521 43.2873 47.1481 43.49 46.7681C43.6927 46.3881 43.794 45.9321 43.794 45.4001C43.794 44.8934 43.6673 44.4628 43.414 44.1081C43.1607 43.7534 42.7997 43.4304 42.331 43.1391C41.8623 42.8478 41.2797 42.5818 40.583 42.3411C39.8863 42.1004 39.0947 41.8408 38.208 41.5621C37.3467 41.2834 36.5043 40.9541 35.681 40.5741C34.8577 40.1941 34.123 39.7064 33.477 39.1111C32.831 38.5158 32.3117 37.7938 31.919 36.9451C31.5263 36.0964 31.33 35.0641 31.33 33.8481C31.33 32.3534 31.634 31.0741 32.242 30.0101C32.85 28.9461 33.648 28.0721 34.636 27.3881C35.624 26.7041 36.7387 26.2038 37.98 25.8871C39.2213 25.5704 40.4753 25.4121 41.742 25.4121C43.262 25.4121 44.8137 25.6908 46.397 26.2481C47.9803 26.8054 49.3673 27.6288 50.558 28.7181L46.416 33.0881Z" fill="#3179FF"/>
<defs>
<linearGradient id="paint0_linear_1014_21663" x1="4" y1="-1.94141e-07" x2="70.8571" y2="75.4286" gradientUnits="userSpaceOnUse">
<stop stop-color="#7BD0FA" stop-opacity="0"/>
<stop offset="0.524768" stop-color="#7BD0FA" stop-opacity="0.3"/>
<stop offset="1" stop-color="#7BD0FA" stop-opacity="0"/>
</linearGradient>
</defs>
</svg>
