<svg width="21" height="22" viewBox="0 0 21 22" fill="none" xmlns="http://www.w3.org/2000/svg">
<rect x="3.5" y="4" width="6.125" height="6.125" rx="1.5" fill="#3179FF"/>
<path opacity="0.3" fill-rule="evenodd" clip-rule="evenodd" d="M11.375 5.5C11.375 4.67157 12.0466 4 12.875 4H16C16.8284 4 17.5 4.67157 17.5 5.5V8.625C17.5 9.45343 16.8284 10.125 16 10.125H12.875C12.0466 10.125 11.375 9.45343 11.375 8.625V5.5ZM3.5 13.375C3.5 12.5466 4.17157 11.875 5 11.875H8.125C8.95343 11.875 9.625 12.5466 9.625 13.375V16.5C9.625 17.3284 8.95343 18 8.125 18H5C4.17157 18 3.5 17.3284 3.5 16.5V13.375ZM12.875 11.875C12.0466 11.875 11.375 12.5466 11.375 13.375V16.5C11.375 17.3284 12.0466 18 12.875 18H16C16.8284 18 17.5 17.3284 17.5 16.5V13.375C17.5 12.5466 16.8284 11.875 16 11.875H12.875Z" fill="#3179FF"/>
</svg>
