<svg fill="none" height="1784" viewBox="0 0 1677 1784" width="1677" xmlns="http://www.w3.org/2000/svg" xmlns:xlink="http://www.w3.org/1999/xlink"><filter id="a" color-interpolation-filters="sRGB" filterUnits="userSpaceOnUse" height="1130" width="1191" x="-427" y="-148"><feFlood flood-opacity="0" result="BackgroundImageFix"/><feBlend in="SourceGraphic" in2="BackgroundImageFix" mode="normal" result="shape"/><feGaussianBlur result="effect1_foregroundBlur" stdDeviation="150"/></filter><filter id="b" color-interpolation-filters="sRGB" filterUnits="userSpaceOnUse" height="1846" width="1966" x="602.812" y="47"><feFlood flood-opacity="0" result="BackgroundImageFix"/><feBlend in="SourceGraphic" in2="BackgroundImageFix" mode="normal" result="shape"/><feGaussianBlur result="effect1_foregroundBlur" stdDeviation="150"/></filter><filter id="c" color-interpolation-filters="sRGB" filterUnits="userSpaceOnUse" height="1716.59" width="2207.84" x="-586" y="-135.363"><feFlood flood-opacity="0" result="BackgroundImageFix"/><feBlend in="SourceGraphic" in2="BackgroundImageFix" mode="normal" result="shape"/><feGaussianBlur result="effect1_foregroundBlur" stdDeviation="200"/></filter><filter id="d" color-interpolation-filters="sRGB" filterUnits="userSpaceOnUse" height="1173.59" width="1573.16" x="-286.916" y="-28.814"><feFlood flood-opacity="0" result="BackgroundImageFix"/><feBlend in="SourceGraphic" in2="BackgroundImageFix" mode="normal" result="shape"/><feGaussianBlur result="effect1_foregroundBlur" stdDeviation="100"/></filter><filter id="e" color-interpolation-filters="sRGB" filterUnits="userSpaceOnUse" height="1037.62" width="2261.1" x="-46.688" y="382.039"><feFlood flood-opacity="0" result="BackgroundImageFix"/><feBlend in="SourceGraphic" in2="BackgroundImageFix" mode="normal" result="shape"/><feGaussianBlur result="effect1_foregroundBlur" stdDeviation="100"/></filter><g opacity=".5"><g filter="url(#a)"><ellipse cx="168.5" cy="417" fill="#0a1426" rx="295.5" ry="265"/></g><g filter="url(#b)"><ellipse cx="1585.81" cy="970" fill="#0a3893" rx="683" ry="623"/></g><g filter="url(#c)"><ellipse cx="517.919" cy="722.933" fill="#0051e8" fill-opacity=".5" rx="651.829" ry="344.872" transform="matrix(.98312457 .18293737 -.18293737 .98312457 140.991564 -82.546932)"/></g><g filter="url(#d)"><path d="m1005.81 713c-559.256-29.512-731.498-556.5-925.9982-541.5-244.4998 18.856-198.9438 513.161 0 701.5 234.5002 222 1304.9982-140 925.9982-160z" fill="#001640"/></g><g filter="url(#e)"><path d="m405.812 751.5c-171.76 0-252.5 91.335-252.5 214.5 0 257 1516.168 348.38 1745.768 134.06 168.73-157.513 147.09-379.305-30.77-458.06-201-89-324.02-70.353-521.5 0-164.77 58.701-218.43 113.996-399.498 163.5-169.475 46.335-388.933-54-541.5-54z" fill="#070636"/></g></g></svg>