<svg width="146" height="36" viewBox="0 0 146 36" fill="none" xmlns="http://www.w3.org/2000/svg">
<path d="M7.91932 0.982697V6.35248H11.2905V4.35386H31.5416V24.629H11.3146V13.745H7.9434V28.0243H34.9609V0.982697H7.91932ZM0.912109 8.5919V35.6094H27.9296V30.0229H24.5584V32.2382H4.28328V11.9631H24.5344V22.6304H27.9055V8.56782H0.912109V8.5919Z" fill="#0082D7"/>
<path d="M52.346 18.6572H48.1321V12.0353H52.5146C54.8262 12.0353 56.2951 13.3837 56.2951 15.4305C56.271 17.4291 54.8262 18.6572 52.346 18.6572ZM48.1321 4.01671H51.8163C54.1279 4.01671 55.4282 5.14845 55.4282 6.97851C55.4282 9.09753 54.0798 10.4219 52.033 10.4219H48.108L48.1321 4.01671C48.108 4.01671 48.1321 4.01671 48.1321 4.01671ZM54.5614 11.048C56.4878 10.4701 57.5232 8.95305 57.5232 6.80995C57.5232 3.96854 55.4042 2.28296 51.8163 2.28296H46.1094V20.3187H52.346C56.1266 20.3187 58.366 18.4886 58.366 15.3824C58.366 13.2633 56.9453 11.6259 54.5614 11.048Z" fill="white"/>
<path d="M108.355 13.1189C110.763 12.565 112.28 10.735 112.28 7.82133C112.28 4.35384 109.945 2.30707 105.947 2.30707H100.746V20.3428H102.769V13.3597H106.67L110.595 20.3428H113.003L108.885 13.6486L108.355 13.1189Z" fill="white"/>
<path d="M127.041 12.1075H119.456V18.6572H127.908V20.3669H117.433V2.30704H127.836V4.0167H119.456V10.4701H127.041V12.1075ZM62.8926 20.3428H64.9153V2.28296H62.8926V20.3428ZM74.3545 4.0167H69.2737V2.30704H81.434V4.0167H76.3772V20.3428H74.3545V4.0167ZM84.3476 4.0167H89.4525V20.3428H91.4752V4.0167H96.532V2.30704H84.3717L84.3476 4.0167C84.3717 4.0167 84.3476 4.0167 84.3476 4.0167ZM139.851 11.1443L145.221 2.33112H142.765L138.744 9.48281L138.575 10.1811L138.407 9.48281L134.385 2.33112H131.953L137.323 11.1443L131.809 20.3669H134.289L138.431 12.9503L138.599 12.252L138.768 12.9503L142.934 20.3669H145.414L139.851 11.1443Z" fill="white"/>
<path d="M102.769 11.7704H106.213C108.621 11.7704 110.234 10.4701 110.234 7.84541C110.234 5.43743 108.789 4.0408 106.333 4.0408H102.745L102.769 11.7704Z" fill="#051139"/>
<path d="M52.3222 28.8189H55.2359V32.8161C54.3209 33.1051 53.3817 33.2495 52.4426 33.2495C51.2386 33.2495 50.3236 32.8884 49.6494 32.19C48.9992 31.4676 48.6621 30.4804 48.6621 29.1801C48.6621 27.9038 49.0233 26.8925 49.7698 26.1701C50.5163 25.4477 51.5276 25.0865 52.8038 25.0865C53.6225 25.0865 54.4172 25.2551 55.1636 25.5681L54.7061 26.6517C54.1041 26.3627 53.4299 26.2183 52.7797 26.2183C51.937 26.2183 51.2627 26.4831 50.757 27.0129C50.2755 27.5427 50.0106 28.265 50.0106 29.2041C50.0106 30.1673 50.2273 30.9138 50.6848 31.4195C51.1182 31.9252 51.7684 32.166 52.6112 32.166C53.0205 32.166 53.4781 32.1178 53.9597 31.9974V29.9506H52.3222V28.8189ZM67.1794 33.1292V25.1828H68.4797V32.0215H71.8509V33.1292H67.1794ZM90.296 29.156C90.296 30.4563 89.983 31.4436 89.3328 32.166C88.6827 32.8884 87.7676 33.2495 86.5877 33.2495C85.3837 33.2495 84.4687 32.8884 83.8186 32.19C83.1684 31.4676 82.8554 30.4563 82.8554 29.156C82.8554 27.8557 83.1684 26.8443 83.8186 26.146C84.4687 25.4477 85.3837 25.0865 86.5877 25.0865C87.7676 25.0865 88.6827 25.4477 89.3328 26.146C89.983 26.8443 90.296 27.8557 90.296 29.156ZM84.2279 29.156C84.2279 30.1433 84.4205 30.8657 84.8299 31.3954C85.2152 31.9011 85.8172 32.1419 86.5877 32.1419C87.3583 32.1419 87.9362 31.9011 88.3215 31.3954C88.7067 30.8897 88.9235 30.1433 88.9235 29.156C88.9235 28.1928 88.7308 27.4463 88.3456 26.9407C87.9603 26.435 87.3824 26.1942 86.6118 26.1942C85.8413 26.1942 85.2393 26.435 84.854 26.9407C84.4205 27.4463 84.2279 28.1687 84.2279 29.156ZM102.023 25.1828H104.383C105.466 25.1828 106.261 25.3514 106.742 25.6644C107.224 25.9775 107.465 26.4831 107.465 27.1815C107.465 27.639 107.344 28.0242 107.104 28.3373C106.863 28.6503 106.526 28.843 106.068 28.9152V28.9634C106.622 29.0597 107.031 29.2764 107.296 29.5894C107.561 29.9025 107.682 30.3118 107.682 30.8416C107.682 31.564 107.441 32.1178 106.935 32.5272C106.429 32.9365 105.755 33.1292 104.864 33.1292H101.999C102.023 33.1292 102.023 25.1828 102.023 25.1828ZM103.323 28.4818H104.575C105.129 28.4818 105.514 28.4095 105.755 28.2169C105.996 28.0483 106.14 27.7594 106.14 27.3259C106.14 26.9407 105.996 26.6758 105.731 26.5072C105.466 26.3387 105.033 26.2664 104.455 26.2664H103.323V28.4818ZM103.323 29.5172V32.0456H104.696C105.25 32.0456 105.659 31.9492 105.924 31.7325C106.213 31.5158 106.333 31.2028 106.333 30.7453C106.333 30.3359 106.189 30.0229 105.9 29.8302C105.611 29.6376 105.177 29.5413 104.623 29.5413C104.623 29.5172 103.323 29.5172 103.323 29.5172ZM124.321 33.1292L123.526 30.9138H120.492L119.721 33.1292H118.325L121.287 25.1588H122.707L125.669 33.1292C125.693 33.1292 124.321 33.1292 124.321 33.1292ZM123.189 29.8061L122.442 27.639C122.274 27.1814 122.129 26.7239 122.009 26.2664C121.889 26.7721 121.744 27.2537 121.576 27.7353L120.853 29.8061H123.189ZM136.77 33.1292V25.1828H138.07V32.0215H141.441V33.1292C141.417 33.1292 136.77 33.1292 136.77 33.1292Z" fill="white"/>
</svg>
