<svg width="103" height="43" viewBox="0 0 103 43" fill="none" xmlns="http://www.w3.org/2000/svg">
<g clip-path="url(#clip0)">
<path d="M72.5995 8.94983L70.4061 17.358L55.3682 19.2759L72.5995 8.94983Z" fill="#57BAE5"/>
<path d="M76.6698 42.8668L80.4067 27.5953L75.5596 25.6242L76.6698 42.8668Z" fill="#005472"/>
<path d="M70.4059 17.3492L66.4614 25.3401L55.4131 19.3025L70.4059 17.3492Z" fill="#34AFE4"/>
<path d="M76.67 42.8668L75.5597 25.6242L66.416 25.3134L76.67 42.8668Z" fill="#0076A7"/>
<path d="M70.4055 17.3492L75.6047 25.6153L66.4609 25.3134L70.4055 17.3492Z" fill="#009DE2"/>
<path d="M72.5997 8.94983L85.047 10.4859L70.4062 17.358L72.5997 8.94983Z" fill="#7ACDF2"/>
<path d="M98.6589 5.12305L90.833 14.0729L91.3836 5.79784L98.6589 5.12305Z" fill="#7ACDF2"/>
<path d="M103.001 0L98.6592 5.12306L102.053 5.53149L103.001 0Z" fill="#7ACDF2"/>
<path d="M94.4434 9.76668L102.053 5.52262L98.6587 5.1142L94.4434 9.76668Z" fill="#00ABE7"/>
<path d="M80.4067 27.5953L80.7768 17.3225L75.5596 25.6242L80.4067 27.5953Z" fill="#0076A7"/>
<path d="M80.7775 17.3225L75.5603 25.6242L70.4062 17.358L80.7775 17.3225Z" fill="#008DBE"/>
<path d="M85.047 10.4858L80.7776 17.3225L70.4062 17.358L85.047 10.4858Z" fill="#57BAE5"/>
<path d="M80.7773 17.3225L80.4072 27.5953L89.9571 37.2021L80.7773 17.3225Z" fill="#00698D"/>
<path d="M94.9481 31.8305L89.9023 19.5334L89.9565 37.211L94.9481 31.8305Z" fill="#09A1CB"/>
<path d="M90.8327 14.0729L89.903 19.5334L80.7773 17.3225L90.8327 14.0729Z" fill="#09A1CB"/>
<path d="M95.4536 21.4778L89.9023 19.5334L90.805 14.0818L95.4536 21.4778Z" fill="#8BDAFF"/>
<path d="M97.4852 31.4931L91.4375 21.9573H94.8946L97.4852 31.4931Z" fill="#7ACDF2"/>
<path d="M86.1836 8.45261L90.8322 14.0729L91.3828 5.79785L86.1836 8.45261Z" fill="#57BAE5"/>
<path d="M89.903 19.5333L80.7773 17.3225L89.9572 37.2021L89.903 19.5333Z" fill="#008DBE"/>
<path d="M94.9481 31.8305L96.961 32.9403L89.9746 37.2021L94.9481 31.8305Z" fill="#0076A7"/>
<path d="M97.4845 31.3777L89.9023 19.5334L94.9481 31.8394L97.4845 31.3777Z" fill="#57BAE5"/>
<path d="M86.1844 8.45261L80.7686 17.3314L90.8239 14.0818L86.1844 8.45261Z" fill="#7ACDF2"/>
<path d="M14.1622 34.5651L15.6245 35.3021L17.0958 34.5651V42.8668H14.1622V34.5651ZM13.9365 31.7594C13.9666 31.3479 14.161 30.9647 14.4772 30.6936C14.7934 30.4224 15.2059 30.2853 15.6245 30.3122C15.837 30.2793 16.0542 30.2922 16.2612 30.3498C16.4682 30.4074 16.6601 30.5085 16.8236 30.646C16.9871 30.7836 17.1184 30.9543 17.2084 31.1465C17.2984 31.3387 17.345 31.5478 17.345 31.7594C17.345 31.9711 17.2984 32.1802 17.2084 32.3724C17.1184 32.5646 16.9871 32.7353 16.8236 32.8728C16.6601 33.0104 16.4682 33.1114 16.2612 33.1691C16.0542 33.2267 15.837 33.2395 15.6245 33.2067C15.4188 33.2224 15.212 33.1982 15.0158 33.1353C14.8197 33.0725 14.6381 32.9722 14.4813 32.8403C14.3246 32.7084 14.1958 32.5474 14.1023 32.3665C14.0088 32.1856 13.9525 31.9884 13.9365 31.7861V31.7594Z" fill="white"/>
<path d="M7.27526 30.1879V35.0446H3.19534V30.1879H0V42.8668H3.19534V37.9924H7.27526V42.8668H10.4706V30.1879H7.27526Z" fill="white"/>
<path d="M23.8382 42.8668H20.8866V36.5629H19.7402V33.8371H20.8866V30.8005H23.8382V33.8371H24.9846V36.5629H23.8382V42.8668Z" fill="white"/>
<path d="M31.1768 39.9546H33.7854C34.8054 39.9546 35.1213 39.3419 35.1213 38.8181C35.1213 38.2942 34.7873 37.6994 33.7854 37.6994H31.1768V39.9546ZM31.1768 35.0624H33.5597C33.6902 35.0812 33.8231 35.0745 33.9509 35.0428C34.0787 35.011 34.1988 34.9547 34.3045 34.8772C34.4101 34.7997 34.4992 34.7024 34.5666 34.591C34.6339 34.4795 34.6783 34.3561 34.6971 34.2277C34.7016 34.1805 34.7016 34.1329 34.6971 34.0857C34.6971 33.7483 34.5075 33.109 33.5507 33.109H31.1768V35.0624ZM33.2077 30.1879C37.0981 30.1879 37.7209 32.4609 37.7209 33.6151C37.7517 34.168 37.6134 34.7172 37.3238 35.192C37.0342 35.6668 36.6066 36.0453 36.0962 36.2787C36.7114 36.4604 37.2456 36.8422 37.6113 37.3617C37.977 37.8811 38.1525 38.5073 38.109 39.1377C38.109 41.1266 36.9446 42.8402 33.0904 42.8402H27.9814V30.1879H33.2077Z" fill="#42ACDB"/>
<path d="M46.3503 42.8668H43.1549V33.1001H39.7881V30.1879H49.7171V33.0735H46.3503V42.8668Z" fill="#42ACDB"/>
<path d="M63.0225 32.1945L60.9555 34.0324C60.1559 33.3407 59.1227 32.9671 58.058 32.9847C57.6092 32.9741 57.1626 33.0507 56.744 33.2102C56.3253 33.3697 55.9427 33.6089 55.6182 33.9141C55.2937 34.2192 55.0336 34.5844 54.8528 34.9887C54.6721 35.3929 54.5742 35.8283 54.5648 36.2699C54.5558 36.3584 54.5558 36.4477 54.5648 36.5362C54.5379 36.9764 54.5995 37.4175 54.7461 37.8343C54.8926 38.2511 55.1212 38.6354 55.4188 38.9652C55.7164 39.295 56.0771 39.5639 56.4804 39.7565C56.8837 39.9492 57.3216 40.0617 57.7692 40.0877H58.058C59.1196 40.1153 60.1532 39.751 60.9555 39.0667L63.0225 40.9046C62.3833 41.5674 61.6133 42.0951 60.7597 42.4554C59.9062 42.8157 58.9869 43.001 58.058 43C56.32 43 54.6532 42.3209 53.4243 41.112C52.1953 39.9031 51.5049 38.2636 51.5049 36.554C51.5049 34.8444 52.1953 33.2048 53.4243 31.996C54.6532 30.7871 56.32 30.108 58.058 30.108C58.9866 30.1032 59.9063 30.286 60.7602 30.6449C61.6142 31.0037 62.3841 31.5312 63.0225 32.1945Z" fill="#42ACDB"/>
</g>
<defs>
<clipPath id="clip0">
<rect width="103" height="43" fill="white"/>
</clipPath>
</defs>
</svg>
