<svg width="117" height="28" viewBox="0 0 117 28" fill="none" xmlns="http://www.w3.org/2000/svg">
<path d="M91.5214 13.7372C91.5214 13.055 91.5214 12.4132 91.4993 11.8205C91.4842 11.2614 91.4288 10.7041 91.3335 10.153C91.2444 9.64968 91.087 9.1609 90.8657 8.70011C90.6321 8.22502 90.3199 7.79275 89.9423 7.42151C89.4068 6.87317 88.7696 6.4343 88.0662 6.12941C87.3052 5.82137 86.4903 5.66867 85.6694 5.68031C84.8453 5.66966 84.0274 5.82231 83.2627 6.12941C82.5553 6.43013 81.914 6.8671 81.3755 7.41537C80.9986 7.78639 80.6876 8.21875 80.4558 8.69397C80.2364 9.15486 80.0815 9.64373 79.9954 10.1468C79.9022 10.6981 79.8489 11.2554 79.8358 11.8144C79.821 12.4071 79.8137 13.0488 79.8173 13.7311C79.821 14.4133 79.8173 15.0502 79.8358 15.6465C79.8489 16.2055 79.9022 16.7628 79.9954 17.3141C80.0815 17.8172 80.2364 18.3061 80.4558 18.7669C80.6886 19.2416 80.9994 19.6738 81.3755 20.0455C81.9132 20.5943 82.5547 21.0306 83.2627 21.3291C84.0269 21.6382 84.8451 21.7917 85.6694 21.7806C86.4906 21.7927 87.3057 21.6391 88.0662 21.3291C88.7697 21.0282 89.4072 20.5921 89.9423 20.0455C90.3191 19.6736 90.6312 19.2415 90.8657 18.7669C91.087 18.3062 91.2444 17.8174 91.3335 17.3141C91.4278 16.7645 91.4824 16.2088 91.4968 15.6514C91.5152 15.0551 91.5238 14.417 91.5189 13.736L91.5214 13.7372ZM88.4272 13.7372C88.4272 14.4931 88.4161 15.1226 88.3903 15.6232C88.3758 16.0344 88.3348 16.4443 88.2675 16.8503C88.2215 17.1207 88.1389 17.3837 88.022 17.6319C87.927 17.832 87.8029 18.0168 87.6536 18.1804C87.4231 18.4441 87.1372 18.6536 86.8162 18.7939C86.455 18.9484 86.0659 19.0269 85.673 19.0247C85.2783 19.0264 84.8873 18.9479 84.5238 18.7939C84.195 18.6562 83.9013 18.4466 83.6643 18.1804C83.514 18.0176 83.3898 17.8326 83.2959 17.6319C83.1822 17.3834 83.1037 17.1204 83.0626 16.8503C82.997 16.4441 82.956 16.0343 82.9398 15.6232C82.9177 15.1226 82.9067 14.4939 82.9067 13.7372C82.9067 12.9813 82.9177 12.3506 82.9398 11.85C82.9561 11.4389 82.9971 11.0291 83.0626 10.6229C83.1037 10.3528 83.1822 10.0898 83.2959 9.84128C83.3901 9.64079 83.5143 9.45584 83.6643 9.29278C83.9016 9.027 84.1952 8.81742 84.5238 8.67925C84.8867 8.52356 85.2781 8.445 85.673 8.44856C86.0661 8.44448 86.4556 8.52308 86.8162 8.67925C87.1369 8.82002 87.4228 9.02946 87.6536 9.29278C87.8026 9.45658 87.9267 9.64139 88.022 9.84128C88.1389 10.0895 88.2215 10.3525 88.2675 10.6229C88.3347 11.0289 88.3757 11.4388 88.3903 11.85C88.4173 12.3494 88.4272 12.9801 88.4272 13.7372Z" fill="#23AF91"/>
<path d="M116.179 6.09052C116.178 5.9413 116.057 5.82067 115.908 5.81934H113.355C113.205 5.82001 113.084 5.94103 113.083 6.09052V15.5144L106.858 5.89541C106.816 5.83038 106.78 5.81934 106.688 5.81934H104.32C104.171 5.82132 104.051 5.94158 104.049 6.09052V21.3822C104.051 21.5309 104.171 21.6508 104.32 21.6521H106.872C107.021 21.6515 107.141 21.531 107.142 21.3822V11.9338L113.368 21.5748C113.411 21.6399 113.446 21.6509 113.539 21.6509H115.905C116.054 21.6503 116.175 21.53 116.176 21.381L116.179 6.09052Z" fill="#23AF91"/>
<path d="M99.0656 6.09052C99.065 5.94103 98.9439 5.82001 98.7943 5.81934H96.244C96.0944 5.82001 95.9733 5.94103 95.9727 6.09052V21.381C95.9733 21.5305 96.0944 21.6515 96.244 21.6521H98.7943C98.9439 21.6515 99.065 21.5305 99.0656 21.381V6.09052Z" fill="#23AF91"/>
<path d="M68.5371 13.7375C68.5371 12.9768 68.5457 12.3436 68.5678 11.8393C68.5828 11.4281 68.6239 11.0182 68.6906 10.6122C68.9264 9.25016 69.9701 8.44643 71.3023 8.44643C72.1716 8.45379 72.9599 8.77528 73.4633 9.50661C73.6913 9.84804 73.8576 10.2268 73.9545 10.6257C73.962 10.6677 74.0004 10.697 74.0429 10.6932H77.045C77.088 10.6932 77.104 10.6637 77.0966 10.622C76.7688 8.76547 75.7779 7.09789 74.0269 6.27207C73.1664 5.87391 72.2271 5.67468 71.279 5.68922C69.5886 5.68922 68.1647 6.26757 67.0072 7.42429C66.3464 8.06791 65.8953 8.89588 65.713 9.79988C65.5362 10.6899 65.447 12.0021 65.4453 13.7363C65.4437 15.4706 65.533 16.7823 65.713 17.6715C65.8938 18.5767 66.3435 19.4063 67.0035 20.052C68.1602 21.2079 69.5841 21.7858 71.2753 21.7858C72.2233 21.8002 73.1624 21.6014 74.0233 21.2042C75.7742 20.3784 76.7651 18.7108 77.0929 16.8543C77.1003 16.8113 77.0843 16.7831 77.0414 16.7831H74.038C73.9953 16.7786 73.9565 16.8082 73.9496 16.8506C73.8524 17.249 73.6862 17.6273 73.4584 17.9684C72.955 18.7047 72.1667 19.0225 71.2974 19.0286C69.9651 19.0286 68.9215 18.2261 68.6857 16.8641C68.619 16.4581 68.578 16.0482 68.5629 15.637C68.5457 15.1302 68.5371 14.4959 68.5371 13.7375Z" fill="#23AF91"/>
<path d="M36.8274 6.09052C36.8267 5.94103 36.7056 5.82001 36.556 5.81934H34.0057C33.8561 5.82001 33.735 5.94103 33.7344 6.09052V21.3822C33.7357 21.5312 33.8566 21.6515 34.0057 21.6523H36.556C36.7051 21.6515 36.826 21.5312 36.8274 21.3822V16.8936L38.8742 14.4481L43.0785 21.5712C43.1108 21.6237 43.169 21.6546 43.2307 21.6523H46.3299C46.4723 21.6523 46.4981 21.5638 46.4269 21.4423L40.9223 12.1166L45.9725 6.06229C46.0745 5.93959 46.0315 5.82302 45.8719 5.82302H42.4842C42.443 5.82059 42.4033 5.83904 42.3786 5.8721L36.8274 12.5252V6.09052Z" fill="#23AF91"/>
<path d="M55.4081 19.0287C53.9727 19.0287 52.6711 17.701 52.6711 16.1156V6.09052C52.6705 5.94103 52.5494 5.82001 52.3998 5.81934H49.8495C49.6999 5.82001 49.5788 5.94103 49.5781 6.09052V16.0764C49.5781 19.5674 52.191 21.7859 55.4081 21.7859C58.6251 21.7859 61.238 19.5674 61.238 16.0764V6.09052C61.2366 5.9413 61.1159 5.82067 60.9666 5.81934H58.4151C58.266 5.82068 58.1456 5.9415 58.145 6.09052V16.1156C58.145 17.6998 56.8422 19.0287 55.4081 19.0287Z" fill="#23AF91"/>
<path fill-rule="evenodd" clip-rule="evenodd" d="M8.09874 13.7376L16.016 21.651L21.0135 16.6568C21.9071 15.8527 23.2742 15.8885 24.1245 16.7382C24.9747 17.588 25.0105 18.9542 24.2059 19.8472L17.611 26.439C16.7252 27.3096 15.3044 27.3096 14.4186 26.439L4.90383 16.928V22.5811C4.90383 23.8287 3.89176 24.8401 2.64332 24.8401C1.39488 24.8401 0.382812 23.8287 0.382812 22.5811V4.88683C0.382812 3.6392 1.39488 2.6278 2.64332 2.6278C3.89176 2.6278 4.90383 3.6392 4.90383 4.88683V10.5399L14.4174 1.03139C15.3029 0.160109 16.7242 0.160109 17.6098 1.03139L24.2096 7.62196C25.0142 8.51498 24.9784 9.8812 24.1282 10.7309C23.2779 11.5806 21.9108 11.6164 21.0171 10.8123L16.0197 5.81817L8.09874 13.7376ZM16.0197 11.4762C15.1043 11.4757 14.2788 12.0263 13.9281 12.8714C13.5775 13.7164 13.7708 14.6893 14.4179 15.3363C15.065 15.9834 16.0384 16.1771 16.8842 15.8271C17.73 15.4771 18.2815 14.6524 18.2815 13.7376C18.2818 13.1379 18.0437 12.5625 17.6195 12.1382C17.1954 11.7138 16.6199 11.4753 16.0197 11.4749V11.4762Z" fill="#23AF91"/>
</svg>
