<svg width="45" height="45" viewBox="0 0 45 45" fill="none" xmlns="http://www.w3.org/2000/svg">
<path d="M22.5 0C10.0735 0 0 10.0735 0 22.5C0 34.9265 10.0735 45 22.5 45C34.9265 45 45 34.9265 45 22.5C45 10.0735 34.9265 0 22.5 0Z" fill="url(#paint0_linear)"/>
<path d="M34.7459 12.1592L30.7818 32.137C30.7818 32.137 30.2275 33.5224 28.7029 32.8574L19.5554 25.8472L16.2292 24.2402L10.6298 22.356C10.6298 22.356 9.77053 22.0513 9.6873 21.3863C9.60408 20.7213 10.6576 20.3611 10.6576 20.3611L32.9162 11.633C32.9162 11.633 34.7457 10.8295 34.7457 12.1595" fill="white"/>
<path d="M19.1771 32.0292C19.1771 32.0292 18.9064 32.0039 18.5689 30.9359C18.232 29.868 16.5176 24.2476 16.5176 24.2476L30.1473 15.5921C30.1473 15.5921 30.9343 15.1143 30.9062 15.5921C30.9062 15.5921 31.0466 15.6765 30.6249 16.0699C30.2036 16.4635 19.9181 25.709 19.9181 25.709" fill="#D2E5F1"/>
<path d="M23.4472 28.6036L19.7792 31.948C19.7792 31.948 19.4923 32.1656 19.1787 32.0292L19.8811 25.8171" fill="#B5CFE4"/>
<defs>
<linearGradient id="paint0_linear" x1="22.5" y1="0" x2="22.5" y2="45" gradientUnits="userSpaceOnUse">
<stop stop-color="#17B3EE"/>
<stop offset="1" stop-color="#18BEF9"/>
</linearGradient>
</defs>
</svg>
