<svg width="149" height="32" viewBox="0 0 149 32" fill="none" xmlns="http://www.w3.org/2000/svg">
<path fill-rule="evenodd" clip-rule="evenodd" d="M0.832732 1.12298C2.98795 3.87507 4.37709 5.71711 6.62051 8.79817C7.84501 10.4798 9.01195 12.0658 9.21351 12.3224C9.66329 12.8947 9.62726 13.1795 9.08752 13.319C8.22398 13.5422 7.9516 13.2443 5.41079 9.29737C3.77754 6.76019 3.22191 5.97008 3.83122 7.05097C4.00525 7.35985 4.65497 8.53921 5.27491 9.67177C7.2915 13.3561 7.42137 13.6879 6.98735 14.0474C6.61939 14.3519 6.32312 15.1223 6.12143 16.2984C5.8627 17.8078 5.4582 18.6539 4.19468 20.3284C2.87072 22.0831 2.77651 22.3134 2.8273 23.6722C2.86534 24.693 2.90325 24.8231 3.48152 25.9186C3.81908 26.558 4.18341 27.2655 4.29126 27.4908C4.4658 27.8553 4.52873 27.8917 4.86604 27.8221C5.71994 27.6462 7.00762 27.1303 7.64282 26.7096C8.5225 26.127 8.80951 25.6519 8.81014 24.7777C8.81064 24.1141 8.79387 24.0816 8.16743 23.5297C6.62464 22.1705 6.33601 21.8439 6.18587 21.2879C6.02472 20.6908 6.10392 20.3755 6.87712 18.5358C7.0658 18.087 7.29013 17.2036 7.38183 16.5487C7.58214 15.118 7.71539 14.9549 8.88296 14.7108C10.2708 14.4206 10.8426 13.9551 11.0742 12.9273L11.1938 12.3964L9.7221 10.7533C7.56463 8.34477 0.545595 0.570745 0.0690346 0.0621864C-0.156046 -0.178053 0.187643 0.299306 0.832732 1.12298ZM11.0627 6.6611C12.5631 7.1422 13.3784 7.80851 15.1173 9.97416C17.7229 13.2194 18.1842 13.475 22.0953 13.8418C24.2965 14.0482 24.7899 14.2192 25.4458 15.0033L25.8404 15.475L25.7589 15.1006C25.6355 14.5346 24.9081 13.0487 24.4523 12.4312L24.0479 11.8836L23.8255 12.5388C23.5511 13.3471 23.0858 13.8504 22.72 13.7346C22.3585 13.6202 22.2862 13.2845 22.5086 12.7534C22.7027 12.2901 22.7409 11.3482 22.5877 10.8006C22.4796 10.4141 21.0596 9.66827 19.859 9.3675C18.7749 9.09581 17.2133 8.9986 16.2299 9.14162L15.4543 9.25431L14.666 8.45909C14.2325 8.02166 13.6103 7.49189 13.2832 7.28185C12.6047 6.84593 11.3538 6.42373 10.7701 6.43371C10.4291 6.43945 10.4695 6.4709 11.0627 6.6611ZM9.93667 7.96426C9.93667 9.76324 10.9234 11.6486 12.2065 12.3015C12.6658 12.5353 13.5039 12.637 13.4181 12.4486C13.3947 12.3971 13.2 12.018 12.9854 11.6062C12.7709 11.1943 12.5308 10.5485 12.4517 10.171C12.0854 8.42165 11.6283 7.73812 10.5774 7.36834C10.2765 7.26238 10.0092 7.17577 9.98346 7.17577C9.95769 7.17577 9.93667 7.53058 9.93667 7.96426ZM23.0276 7.64377C22.9915 7.83259 22.9249 8.28562 22.8797 8.65053C22.8117 9.20102 22.7625 9.29999 22.5916 9.2306C22.1842 9.06524 21.0312 8.67337 20.9584 8.67561C20.9176 8.67686 21.1922 8.84721 21.5687 9.05426C22.8926 9.78209 23.1916 10.2628 23.2113 11.6958C23.226 12.7729 23.4165 12.4134 23.4365 11.2703C23.4434 10.8797 23.5096 10.5228 23.5836 10.4771C23.6577 10.4314 23.9533 10.5779 24.2405 10.8026C25.1504 11.5146 25.1542 11.5008 24.3107 10.5454C23.2538 9.34841 23.1826 9.20152 23.1572 8.16344C23.1457 7.68895 23.1266 7.3007 23.1148 7.3007C23.1032 7.30057 23.0639 7.45495 23.0276 7.64377ZM88.0109 11.3694C85.9795 11.9139 84.7711 13.4879 84.909 15.4098C85.0388 17.2205 85.9467 18.3568 88.48 19.8793C91.5341 21.7147 92.2845 22.8743 91.525 24.5853C90.9407 25.902 90.0029 26.5142 88.5709 26.5142C86.822 26.5142 86.019 25.8308 85.4246 23.8365C85.2816 23.3569 84.8235 23.2527 84.7104 23.674C84.668 23.832 84.6325 24.5845 84.6316 25.346L84.6298 26.7306L85.5369 27.0132C86.7893 27.4032 88.7891 27.495 90.0278 27.2195C91.6459 26.8596 93.012 25.855 93.7225 24.5027C94.0257 23.9255 94.0726 23.6948 94.073 22.7757C94.074 20.805 93.4182 19.973 90.1758 17.8304C87.3527 15.9649 86.7087 15.1948 86.9388 13.9581C87.0633 13.2888 88.0106 12.3844 88.7926 12.188C89.88 11.9148 91.067 12.0906 91.6425 12.6102C91.7744 12.7294 92.0521 13.1266 92.2594 13.4933C92.629 14.1463 93.143 14.4763 93.3783 14.2116C93.4818 14.0952 93.2355 11.5998 93.1078 11.4725C92.7993 11.1646 89.0571 11.089 88.0109 11.3694ZM35.043 11.627C34.997 11.6727 34.9595 11.8121 34.9595 11.9366C34.9595 12.15 35.1086 12.2204 35.7718 12.3204C35.9089 12.3411 36.0965 12.5151 36.1888 12.7071C36.3917 13.1293 36.5751 16.0284 36.5849 18.9693C36.5959 22.2903 36.7521 23.8665 37.1473 24.6444C37.6236 25.5817 38.4448 26.3391 39.563 26.8717L40.5271 27.3309C40.5271 27.3309 40.9917 27.457 41.4128 27.5183C41.8266 27.5786 42.1009 27.6431 42.6639 27.6431C43.227 27.6431 43.3517 27.6416 43.79 27.5807C44.2298 27.5197 44.9113 27.3309 44.9113 27.3309L45.7845 26.9035C46.9718 26.3223 48.0885 25.2067 48.4506 24.2398C48.7923 23.3277 48.9379 21.6648 49.0925 16.9102C49.1583 14.8853 49.2597 13.0643 49.3176 12.8638C49.4313 12.4703 49.5894 12.3488 50.1377 12.2332C50.4131 12.1751 50.4813 12.0987 50.4505 11.8826C50.4115 11.6087 50.3906 11.6062 48.0965 11.6062C45.8024 11.6062 45.7815 11.6087 45.7425 11.8826C45.7124 12.0935 45.779 12.1747 46.024 12.2258C46.2005 12.2625 46.4894 12.3226 46.6659 12.3595C47.3112 12.4937 47.3915 12.971 47.4462 16.9955C47.4954 20.6105 47.3828 22.5783 47.0697 23.5751C46.8521 24.2677 45.8413 25.3184 44.9924 25.7342C44.3566 26.0456 44.1468 26.0828 43.0294 26.0821C41.9817 26.0813 41.6709 26.0329 41.1178 25.7843C40.3202 25.4259 39.4465 24.5011 39.2325 23.7887C39.0058 23.0339 38.916 19.6621 39.0222 15.8923L39.1161 12.5655L39.6674 12.3555C40.2769 12.1233 40.6301 11.8348 40.5208 11.6585C40.4403 11.5284 35.1722 11.4981 35.043 11.627ZM53.7649 11.7491C53.6554 12.0335 54.0507 12.2924 54.5951 12.2931C55.2054 12.2937 55.8283 12.7035 56.0686 13.2625C56.5024 14.2715 56.3983 24.4518 55.943 25.5387C55.8158 25.8424 55.6294 26.026 55.3372 26.1352C54.3997 26.4855 54.3349 26.5256 54.3747 26.7316C54.4413 27.0762 55.1553 27.1654 57.498 27.1223C59.0613 27.0934 59.7664 27.035 59.8763 26.9253C60.0993 26.7026 59.886 26.5226 58.9515 26.1453C58.225 25.8521 58.1689 25.7996 58.0159 25.2717C57.816 24.5821 57.6512 18.2791 57.7866 16.4993C57.8695 15.4088 57.9007 15.2945 58.0761 15.4385C58.1843 15.5271 59.4024 16.8634 60.7832 18.4077C65.8291 24.0518 68.2878 26.647 68.8905 26.9653C69.0764 27.0635 69.3628 27.1437 69.5269 27.1437H69.8255L69.9199 20.4981C69.9718 16.843 70.0514 13.5719 70.0967 13.2288L70.1792 12.6051L70.9298 12.34C71.3427 12.1942 71.6972 11.9917 71.7174 11.8898C71.7685 11.6345 70.918 11.5461 68.3924 11.5449C66.6887 11.5439 66.3434 11.5747 66.2827 11.7326C66.1825 11.9929 66.4606 12.2926 66.8022 12.2926C66.9581 12.2926 67.3593 12.4751 67.694 12.6982L68.3024 13.1038L68.381 14.851C68.5568 18.7592 68.4837 22.9005 68.239 22.9005C68.1453 22.9005 62.7326 16.9827 59.6696 13.5313L57.918 11.5576L55.881 11.5506C54.102 11.5446 53.8339 11.5697 53.7649 11.7491ZM75.0795 11.627C74.9249 11.7813 74.9945 12.1404 75.194 12.2168C75.3028 12.2585 75.5531 12.2926 75.75 12.2926C75.9469 12.2926 76.2623 12.4248 76.4509 12.5867L76.7937 12.8807L76.9039 16.8611C77.0184 20.9965 76.9493 24.6313 76.7414 25.4133C76.5905 25.9805 76.4197 26.1222 75.6625 26.3087C75.2026 26.4219 75.0496 26.5201 75.021 26.7208C74.9898 26.9386 75.0655 26.9977 75.4588 27.0626C76.0912 27.1668 80.2286 27.1424 80.6262 27.032C81.153 26.8859 81.0303 26.4919 80.41 26.3385C79.5597 26.1282 79.4085 25.9238 79.3286 24.8774C79.214 23.374 79.1426 14.9291 79.2355 13.8683C79.3136 12.9776 79.3564 12.8579 79.6925 12.5897C79.8964 12.427 80.2111 12.2936 80.392 12.2932C80.7729 12.2924 81.062 12.0056 80.9569 11.7326C80.8951 11.5716 80.4617 11.5438 78.0236 11.5438C76.4501 11.5438 75.1253 11.5812 75.0795 11.627ZM96.1629 11.8244C96.1918 12.0266 96.3422 12.1505 96.7001 12.2672C96.9735 12.3563 97.2919 12.5147 97.4076 12.619C97.8027 12.9758 99.3268 16.6698 102.37 24.6477L103.346 27.2061L104.047 27.269L104.748 27.3319L105.904 24.2738C107.704 19.5115 108.782 16.7967 108.905 16.7211C109.081 16.6128 109.358 17.2633 111.339 22.4325L113.192 27.2685H113.784C114.11 27.2685 114.432 27.1983 114.5 27.1125C114.567 27.0268 115.707 24.1766 117.031 20.7789C118.356 17.3813 119.648 14.1521 119.903 13.603C120.319 12.7079 120.428 12.5732 120.958 12.3017C121.339 12.1061 121.535 11.9291 121.51 11.8025C121.478 11.6324 121.164 11.6062 119.161 11.6062C116.999 11.6062 116.847 11.6213 116.805 11.8408C116.748 12.1368 116.983 12.2882 117.504 12.2907C117.896 12.2924 118.411 12.6474 118.411 12.9159C118.411 13.2242 114.84 22.9239 114.441 23.7019C114.298 23.9803 114.23 24.0246 114.155 23.8891C113.956 23.5309 112.032 18.2787 111.292 16.0702C110.862 14.7903 110.528 13.5758 110.528 13.2935C110.528 12.6944 110.866 12.2934 111.373 12.2907C111.834 12.2881 112.064 12.1256 112.009 11.8408C111.966 11.6189 111.801 11.6062 108.963 11.6062H105.962L105.922 11.8875C105.881 12.1739 105.932 12.2099 106.579 12.3526C106.781 12.3971 107.161 12.648 107.424 12.9099C107.873 13.3586 107.901 13.4311 107.901 14.1536C107.901 15.0715 107.547 16.2119 105.813 20.8707C105.143 22.6715 104.551 24.1019 104.499 24.0494C104.28 23.8312 101.022 14.9235 100.666 13.5721C100.414 12.6108 100.517 12.3845 101.255 12.2838C101.848 12.2028 102.088 12.0227 101.979 11.7393C101.913 11.5696 101.522 11.5438 99.0132 11.5438H96.123L96.1629 11.8244ZM127.152 11.8564L126.573 12.1574L124.036 18.4962C122.641 21.9825 121.389 25.0596 121.255 25.3341C120.906 26.046 120.433 26.5045 119.9 26.6479C119.438 26.7718 119.183 27.0907 119.385 27.292C119.444 27.3506 120.67 27.3833 122.11 27.3647C124.708 27.3312 124.729 27.3287 124.768 27.054C124.802 26.8186 124.722 26.7554 124.233 26.6328C123.533 26.4568 123.164 26.034 123.168 25.4109C123.169 25.1628 123.408 24.2577 123.699 23.3997L124.228 21.8397H127.044H129.859L130.527 23.5024C130.986 24.6454 131.171 25.2601 131.118 25.4689C130.998 25.9458 130.398 26.5305 129.931 26.6258C129.446 26.7247 129.16 27.058 129.375 27.2728C129.471 27.3681 130.392 27.3821 132.469 27.3197C135.207 27.2373 135.426 27.214 135.426 27.0048C135.426 26.8476 135.277 26.7389 134.935 26.647C134.334 26.4857 133.881 25.9766 133.4 24.9222C133.202 24.4897 131.966 21.3729 130.653 17.9958C129.339 14.6188 128.237 11.7856 128.204 11.6998C128.114 11.4711 127.805 11.5172 127.152 11.8564ZM139.68 11.6263C136.95 11.8148 137.053 11.7965 137.053 12.0961C137.053 12.3314 137.169 12.4089 137.778 12.5776C139.085 12.94 138.992 12.4111 138.992 19.4724C138.992 26.5382 139.067 26.0922 137.792 26.6042C137.318 26.7945 137.103 26.9532 137.075 27.1346C137.036 27.3902 137.071 27.3933 139.993 27.3933H142.95L142.911 27.1179C142.881 26.9137 142.709 26.7854 142.245 26.6218C141.083 26.2121 141.056 26.1365 141.056 23.2749V20.7928L141.731 21.1007C142.586 21.4914 144.1 21.6257 145.205 21.4089C147.817 20.8964 149.338 18.5974 148.936 15.7689C148.62 13.5447 147.366 12.181 145.22 11.7273C144.439 11.5624 141.407 11.5069 139.68 11.6263ZM144.443 12.8664C145.329 13.1263 146.182 13.9757 146.514 14.9281C146.831 15.8391 146.836 17.6224 146.523 18.431C146.23 19.1884 145.501 19.8393 144.669 20.0856C143.804 20.3418 142.209 20.3384 141.559 20.0789L141.056 19.8783V16.7196C141.056 14.9824 141.093 13.4656 141.138 13.349C141.373 12.7386 143.132 12.4818 144.443 12.8664ZM17.4768 14.3255C17.6724 16.2155 18.6422 17.1335 21.9822 18.59C24.5708 19.7188 25.1613 20.0265 25.7801 20.5699C26.3898 21.1053 26.6487 21.5246 26.8114 22.2413L26.9187 22.7133L27.1294 22.2344C27.6752 20.9935 27.6825 19.3678 27.1474 18.2018C26.7071 17.2425 26.2726 16.7286 25.4242 16.1634C24.4837 15.537 23.5167 15.238 21.1381 14.8377C19.7436 14.6032 19.0475 14.4204 18.4444 14.1302C17.9972 13.9151 17.5803 13.7149 17.5181 13.6853C17.4535 13.6547 17.4358 13.9291 17.4768 14.3255ZM128.121 17.5033C128.698 18.9117 129.171 20.0844 129.171 20.1095C129.171 20.1345 128.213 20.1549 127.044 20.1549C125.37 20.1549 124.917 20.12 124.917 19.991C124.917 19.8554 126.244 15.9628 126.684 14.8085C126.802 14.501 126.82 14.4937 126.942 14.7096C127.014 14.8377 127.545 16.095 128.121 17.5033ZM11.6117 15.0343C11.1475 15.2237 10.8125 15.7755 10.8125 16.35C10.8125 17.0659 11.0089 17.2027 11.9399 17.1355C13.1686 17.0468 13.7609 16.3568 13.2613 15.5961C12.9363 15.1014 12.1245 14.8249 11.6117 15.0343ZM12.6642 15.3127C12.9224 15.5703 12.8343 15.9104 12.4737 16.047C11.8678 16.2769 11.2116 15.7727 11.5645 15.3485C11.7498 15.1259 12.4538 15.1029 12.6642 15.3127ZM19.5785 18.8101C19.9862 20.2283 19.3702 21.6824 18.0877 22.3287C17.7678 22.4898 16.7479 22.771 15.8212 22.9536C14.3487 23.2435 12.5836 23.8353 12.7365 23.9878C12.7654 24.0166 13.0171 23.9789 13.2959 23.9041C13.5747 23.8292 14.6528 23.6864 15.6918 23.5869C18.3061 23.3366 19.2359 22.9014 19.8704 21.6316C20.2695 20.8325 20.3006 19.9199 19.9562 19.1182C19.6599 18.4288 19.4103 18.2253 19.5785 18.8101ZM20.8689 19.2135C20.8256 19.3261 20.8162 19.8508 20.848 20.3795C20.9143 21.4837 21.0964 21.8986 22.4327 23.9922C23.742 26.0434 23.9796 26.572 24.046 27.5812C24.0877 28.2139 24.0473 28.5898 23.8998 28.942C23.7877 29.2095 23.7196 29.452 23.7485 29.4809C23.8696 29.6017 24.5613 29.1187 25.1194 28.5234C26.5531 26.9947 26.9157 24.6747 26.0106 22.8225C25.4801 21.7373 24.8564 21.2526 21.5415 19.3495C21.019 19.0495 20.9383 19.0332 20.8689 19.2135ZM4.70326 23.1071C5.12302 23.486 4.90157 24.2733 4.37509 24.2733C4.0279 24.2733 3.91454 24.0589 4.08608 23.7271C4.17115 23.5627 4.16064 23.464 4.05104 23.3965C3.8401 23.2665 3.99549 22.9005 4.26149 22.9005C4.37859 22.9005 4.5774 22.9935 4.70326 23.1071ZM11.8131 25.3734C10.8394 25.6939 9.46999 26.4365 8.81802 26.9978L8.26239 27.4763L9.06512 27.6338C10.1634 27.8493 10.6713 28.1346 11.7245 29.1274C12.8205 30.1606 13.007 30.2637 13.7792 30.2637C14.4638 30.2637 14.8528 30.0477 15.1297 29.5136C15.6201 28.5673 15.0836 27.6014 14.0676 27.6014C13.6491 27.6014 13.1844 27.9512 13.1995 28.2551C13.2079 28.4237 13.2197 28.4255 13.2765 28.2669C13.5772 27.4274 14.9412 27.7733 14.9412 28.6892C14.9412 29.4387 14.1613 29.9377 13.4497 29.6438C12.0612 29.0701 12.2934 27.2567 13.7811 27.0576C15.006 26.8936 15.7911 27.5627 16.8744 29.6934C17.8036 31.5216 18.2113 31.9067 19.3003 31.9853C19.9113 32.0294 20.1258 31.9847 20.6434 31.7054C20.9823 31.5226 21.1494 31.4068 21.0149 31.4482C19.9611 31.7726 19.0255 31.6043 18.5144 30.9985C18.1776 30.5992 18.0872 30.3089 17.7667 28.5965C17.4499 26.9039 16.9433 26.1501 15.6919 25.5097C14.9132 25.1112 12.8324 25.0382 11.8131 25.3734Z" fill="#FF007A"/>
</svg>
