<svg width="34" height="48" viewBox="0 0 34 48" fill="none" xmlns="http://www.w3.org/2000/svg">
<path d="M28.5957 0.395874H4.86916C2.40777 0.395874 0.412415 2.39122 0.412415 4.85261V43.1474C0.412415 45.6088 2.40777 47.6041 4.86916 47.6041H28.5957C31.0571 47.6041 33.0525 45.6088 33.0525 43.1474V4.85261C33.0525 2.39122 31.0571 0.395874 28.5957 0.395874Z" fill="#DB383D"/>
<path d="M16.7328 18.8748L14.0392 23.9984L10.5167 17.3001L5.86407 8.43933H11.2513L16.7328 18.8748Z" fill="white"/>
<path d="M27.601 39.5607H22.2137L16.7322 29.1252L19.4259 23.9979L22.9445 30.7L27.601 39.5607Z" fill="url(#paint0_linear_2_8)"/>
<path d="M19.4264 23.9979L16.7328 29.1252L11.2513 39.5607H5.86407L10.5167 30.7L14.0392 24.0017V23.9979H19.4264Z" fill="white"/>
<path d="M27.6012 8.43933L22.9448 17.3001L19.4261 23.9984H14.0389L16.7325 18.8748L22.214 8.43933H27.6012Z" fill="url(#paint1_linear_2_8)"/>
<defs>
<linearGradient id="paint0_linear_2_8" x1="18.7854" y1="27.5844" x2="23.7018" y2="37.4133" gradientUnits="userSpaceOnUse">
<stop offset="0.03" stop-color="#ED7A88"/>
<stop offset="0.6" stop-color="#FAD9DD"/>
<stop offset="0.86" stop-color="white"/>
</linearGradient>
<linearGradient id="paint1_linear_2_8" x1="14.0389" y1="16.2188" x2="27.6012" y2="16.2188" gradientUnits="userSpaceOnUse">
<stop offset="0.03" stop-color="#ED7A88"/>
<stop offset="0.31" stop-color="#F4B1B9"/>
<stop offset="0.56" stop-color="#FADBDF"/>
<stop offset="0.75" stop-color="#FEF5F6"/>
<stop offset="0.86" stop-color="white"/>
</linearGradient>
</defs>
</svg>
