<svg width="448" height="254" viewBox="0 0 448 254" fill="none" xmlns="http://www.w3.org/2000/svg">
<rect x="1" y="1" width="445.464" height="240.056" rx="9" fill="white"/>
<rect x="1" y="1" width="445.464" height="240.056" rx="9" stroke="#EDF3FF" stroke-width="2"/>
<g filter="url(#filter0_d_1053_8384)">
<path fill-rule="evenodd" clip-rule="evenodd" d="M31.9311 169.286C28.5142 169.286 25.7441 172.056 25.7441 175.473V211.358C25.7441 214.775 28.5142 217.545 31.9311 217.545H211.354C214.771 217.545 217.541 214.775 217.541 211.358V175.473C217.541 172.056 214.771 169.286 211.354 169.286H31.9311Z" fill="#E51E30"/>
</g>
<path d="M112.184 199.304C110.677 199.304 109.499 198.905 108.65 198.107C107.801 197.309 107.377 196.194 107.377 194.763H109.106C109.106 195.688 109.378 196.422 109.923 196.967C110.48 197.512 111.228 197.784 112.165 197.784C113.001 197.784 113.647 197.594 114.103 197.214C114.559 196.821 114.787 196.277 114.787 195.58C114.787 194.997 114.622 194.529 114.293 194.174C113.976 193.819 113.432 193.509 112.659 193.243L110.455 192.464C108.669 191.894 107.776 190.729 107.776 188.968C107.776 187.904 108.162 187.043 108.935 186.384C109.708 185.725 110.715 185.396 111.956 185.396C113.261 185.396 114.306 185.763 115.091 186.498C115.876 187.233 116.269 188.221 116.269 189.462H114.54C114.54 188.639 114.312 188.005 113.856 187.562C113.4 187.106 112.748 186.878 111.899 186.878C111.164 186.878 110.582 187.062 110.151 187.429C109.733 187.784 109.524 188.265 109.524 188.873C109.524 189.43 109.708 189.893 110.075 190.26C110.442 190.627 111.038 190.95 111.861 191.229L113.913 191.951C115.661 192.572 116.535 193.769 116.535 195.542C116.535 196.669 116.136 197.581 115.338 198.278C114.553 198.962 113.501 199.304 112.184 199.304ZM126.558 194.117C126.558 194.358 126.539 194.687 126.501 195.105H119.718C119.731 195.941 119.984 196.6 120.478 197.081C120.972 197.55 121.637 197.784 122.473 197.784C123.639 197.784 124.411 197.353 124.791 196.492H126.444C126.292 197.303 125.849 197.961 125.114 198.468C124.38 198.975 123.499 199.228 122.473 199.228C121.131 199.228 120.06 198.816 119.262 197.993C118.477 197.157 118.084 196.03 118.084 194.611C118.084 193.218 118.477 192.103 119.262 191.267C120.048 190.431 121.093 190.013 122.397 190.013C123.639 190.013 124.639 190.393 125.399 191.153C126.172 191.913 126.558 192.901 126.558 194.117ZM119.718 193.832H124.924C124.924 193.059 124.696 192.451 124.24 192.008C123.797 191.565 123.176 191.343 122.378 191.343C121.593 191.343 120.96 191.571 120.478 192.027C120.01 192.483 119.756 193.085 119.718 193.832ZM128.696 199V185.7H130.349V199H128.696ZM133.204 199V185.7H134.857V199H133.204Z" fill="white"/>
<g filter="url(#filter1_d_1053_8384)">
<path fill-rule="evenodd" clip-rule="evenodd" d="M233.626 169.286C230.209 169.286 227.439 172.056 227.439 175.473V211.358C227.439 214.775 230.209 217.545 233.626 217.545H415.524C418.941 217.545 421.711 214.775 421.711 211.358V175.473C421.711 172.056 418.941 169.286 415.524 169.286H233.626Z" fill="#3DC752"/>
</g>
<path d="M316.27 192.198C317.03 192.287 317.663 192.616 318.17 193.186C318.689 193.743 318.949 194.472 318.949 195.371C318.949 196.486 318.582 197.372 317.847 198.031C317.112 198.677 316.105 199 314.826 199H310.266V185.7H314.636C315.915 185.7 316.922 186.004 317.657 186.612C318.404 187.22 318.778 188.062 318.778 189.139C318.778 190.862 317.942 191.881 316.27 192.198ZM314.579 187.239H311.995V191.495H314.693C315.415 191.495 315.985 191.305 316.403 190.925C316.834 190.545 317.049 190.026 317.049 189.367C317.049 188.683 316.827 188.157 316.384 187.79C315.953 187.423 315.352 187.239 314.579 187.239ZM314.807 197.461C315.554 197.461 316.143 197.265 316.574 196.872C317.005 196.467 317.22 195.909 317.22 195.2C317.22 194.554 317.005 194.028 316.574 193.623C316.156 193.218 315.611 193.015 314.94 193.015H311.995V197.461H314.807ZM324.46 199.228C323.446 199.228 322.636 198.924 322.028 198.316C321.432 197.695 321.135 196.802 321.135 195.637V190.241H322.788V195.238C322.788 196.948 323.497 197.803 324.916 197.803C325.752 197.803 326.372 197.537 326.778 197.005C327.196 196.46 327.405 195.802 327.405 195.029V190.241H329.058V199H327.405V197.404C327.164 197.961 326.784 198.405 326.265 198.734C325.758 199.063 325.156 199.228 324.46 199.228ZM338.169 190.241H339.822V199.171C339.822 200.552 339.423 201.603 338.625 202.325C337.915 202.958 336.959 203.275 335.756 203.275C334.489 203.275 333.501 202.971 332.792 202.363C332.146 201.818 331.816 201.065 331.804 200.102H333.476C333.539 201.293 334.293 201.888 335.737 201.888C337.358 201.888 338.169 200.944 338.169 199.057V197.423C337.586 198.626 336.573 199.228 335.129 199.228C334.027 199.228 333.197 198.892 332.64 198.221C332.082 197.537 331.804 196.619 331.804 195.466V190.241H333.457V195.124C333.457 195.973 333.621 196.625 333.951 197.081C334.293 197.524 334.869 197.746 335.68 197.746C336.478 197.746 337.092 197.461 337.523 196.891C337.953 196.308 338.169 195.593 338.169 194.744V190.241Z" fill="white"/>
<path fill-rule="evenodd" clip-rule="evenodd" d="M2 144.595C2 136.558 7.66224 129.633 15.5396 128.036L31.3485 124.832C35.9827 123.893 40.755 123.86 45.4018 124.735L64.6457 128.359C68.8541 129.152 73.1378 129.472 77.4172 129.313L90.1458 128.84C99.0746 128.509 107.531 124.744 113.753 118.332C127.074 104.604 148.994 104.251 162.751 117.542L167.166 121.807C171.604 126.096 176.957 129.322 182.822 131.245L186.501 132.45C198.337 136.33 211.114 136.26 222.907 132.25L241.683 125.867L257.541 122.121C267.692 119.723 278.304 120.132 288.24 123.305L307.802 129.552L315.895 132.504C322.606 134.952 329.957 135.01 336.706 132.668C342.56 130.637 347.672 126.901 351.384 121.94L355.328 116.67C356.569 115.011 357.959 113.468 359.479 112.061C370.855 101.53 387.887 99.9604 400.996 108.234L406.663 111.811C409.154 113.384 411.801 114.696 414.561 115.727L431.799 122.165C439.738 125.13 445 132.713 445 141.186C445 152.4 435.909 161.491 424.695 161.491H18.8959C9.56456 161.491 2 153.927 2 144.595Z" fill="url(#paint0_linear_1053_8384)" fill-opacity="0.1"/>
<path d="M2.49414 131.858L25.4465 126.386C34.2683 124.283 43.4337 124.059 52.3477 125.728L67.6979 128.604C70.467 129.122 73.2706 129.436 76.0859 129.541L88.8641 130.02C98.9424 130.398 108.603 125.974 114.902 118.098V118.098C127.378 102.497 150.976 102.119 163.946 117.312L167.763 121.784C172.011 126.759 177.511 130.508 183.695 132.641L187.215 133.856C198.279 137.673 210.327 137.516 221.287 133.412L241.962 125.671L248.095 123.303C265.867 116.44 285.783 117.935 302.331 127.374L304.593 128.665C306.873 129.965 309.281 131.027 311.778 131.833L317.969 133.833C332.365 138.482 347.998 131.92 354.763 118.39V118.39C363.72 100.476 387.233 95.8894 402.326 109.056V109.056C404.904 111.304 407.846 113.112 411.018 114.392L445.097 128.145" stroke="#4C8AFE" stroke-width="2.4748"/>
<path d="M113.838 59V41.8493H116.802L123.589 54.2958V41.8493H126.284V59H123.319L116.533 46.5535V59H113.838ZM148.046 50.4001V52.9237H146.159C145.718 54.9492 144.771 56.5417 143.317 57.7014C141.88 58.8448 140.042 59.4165 137.805 59.4165C135.142 59.4165 133.002 58.5835 131.385 56.9174C129.768 55.235 128.968 53.1116 128.984 50.5471C129.001 47.999 129.801 45.8429 131.385 44.0789C132.986 42.3148 135.207 41.4327 138.05 41.4327C140.108 41.4327 141.823 41.9636 143.195 43.0253C144.583 44.087 145.351 45.4101 145.498 46.9945H142.411C142.215 46.0961 141.733 45.3692 140.965 44.8139C140.198 44.2422 139.226 43.9564 138.05 43.9564C136.057 43.9564 134.538 44.5852 133.492 45.8429C132.447 47.0843 131.933 48.6524 131.949 50.5471C131.933 52.3602 132.455 53.8711 133.517 55.0798C134.595 56.2885 136.024 56.8929 137.805 56.8929C140.728 56.8929 142.525 55.5699 143.195 52.9237H139.887V50.4001H148.046ZM158.671 59.4165C155.927 59.4165 153.755 58.5835 152.154 56.9174C150.553 55.2513 149.753 53.0871 149.753 50.4246C149.753 47.7622 150.553 45.5979 152.154 43.9318C153.755 42.2658 155.927 41.4327 158.671 41.4327C160.974 41.4327 162.869 42.0208 164.355 43.1968C165.842 44.3565 166.716 45.8674 166.977 47.7295H163.89C163.612 46.5535 163.024 45.6306 162.126 44.9609C161.244 44.2912 160.1 43.9564 158.696 43.9564C156.817 43.9564 155.347 44.5444 154.285 45.7204C153.24 46.8801 152.717 48.4482 152.717 50.4246C152.717 52.401 153.24 53.9773 154.285 55.1533C155.347 56.3131 156.817 56.8929 158.696 56.8929C160.1 56.8929 161.244 56.5581 162.126 55.8884C163.024 55.2187 163.612 54.2958 163.89 53.1197H166.977C166.716 54.9818 165.842 56.5009 164.355 57.6769C162.869 58.8367 160.974 59.4165 158.671 59.4165ZM169.385 60.6906L167.229 59.7595L175.633 40.2812L177.789 41.2122L169.385 60.6906ZM190.534 57.8485C189.39 58.8938 187.838 59.4165 185.878 59.4165C183.918 59.4165 182.367 58.8938 181.223 57.8485C180.08 56.7867 179.508 55.2758 179.508 53.3158V41.8493H182.326V53.1442C182.326 54.353 182.644 55.284 183.281 55.9374C183.918 56.5744 184.784 56.8929 185.878 56.8929C186.973 56.8929 187.838 56.5744 188.475 55.9374C189.112 55.284 189.431 54.353 189.431 53.1442V41.8493H192.249V53.3158C192.249 55.2758 191.677 56.7867 190.534 57.8485ZM200.693 59.4165C198.7 59.4165 197.157 58.8938 196.062 57.8485C194.984 56.8031 194.445 55.3167 194.445 53.3893H197.263C197.263 54.5 197.565 55.3738 198.169 56.0109C198.774 56.6479 199.607 56.9664 200.668 56.9664C201.599 56.9664 202.31 56.7622 202.8 56.3539C203.306 55.9292 203.559 55.333 203.559 54.5653C203.559 53.9119 203.372 53.3893 202.996 52.9972C202.637 52.6052 201.975 52.2132 201.011 51.8212L198.218 50.6941C196.03 49.8448 194.935 48.3257 194.935 46.1369C194.935 44.7486 195.441 43.6215 196.454 42.7558C197.483 41.8738 198.806 41.4327 200.423 41.4327C202.122 41.4327 203.486 41.9228 204.515 42.9028C205.56 43.8828 206.083 45.1814 206.083 46.7985H203.265C203.265 45.8511 203.012 45.1242 202.506 44.6179C202 44.0952 201.273 43.8338 200.325 43.8338C199.525 43.8338 198.896 44.0299 198.439 44.4219C197.998 44.7976 197.777 45.3121 197.777 45.9654C197.777 46.5535 197.998 47.0598 198.439 47.4845C198.88 47.9092 199.607 48.3257 200.619 48.7341L203.143 49.7631C205.299 50.6451 206.377 52.2214 206.377 54.4918C206.377 55.9619 205.854 57.1543 204.809 58.069C203.764 58.9673 202.392 59.4165 200.693 59.4165ZM209.066 59V41.8493H214.873C217.584 41.8493 219.7 42.6905 221.219 44.3729C222.754 46.0389 223.522 48.0562 223.522 50.4246C223.522 52.7931 222.754 54.8185 221.219 56.5009C219.7 58.167 217.584 59 214.873 59H209.066ZM211.884 56.4764H214.628C216.588 56.4764 218.075 55.8884 219.087 54.7123C220.116 53.5363 220.631 52.107 220.631 50.4246C220.631 48.7422 220.116 47.313 219.087 46.1369C218.075 44.9609 216.588 44.3729 214.628 44.3729H211.884V56.4764ZM228.26 59V44.4954H223.286V41.8493H236.076V44.4954H231.078V59H228.26Z" fill="#222222"/>
<ellipse cx="74.9044" cy="50.2796" rx="24.5939" ry="24.4574" fill="#F0F0F0"/>
<path d="M73.8438 50.2806H99.5069C99.5069 48.0731 99.211 45.9347 98.6596 43.9004H73.8438V50.2806Z" fill="#D80027"/>
<path d="M73.8438 37.5189H95.8971C94.3916 35.0758 92.4667 32.9164 90.2223 31.1387H73.8438V37.5189Z" fill="#D80027"/>
<path d="M74.9226 74.7377C80.7107 74.7377 86.0307 72.7482 90.2319 69.4209H59.6133C63.8144 72.7482 69.1345 74.7377 74.9226 74.7377Z" fill="#D80027"/>
<path d="M53.9305 63.0404H95.8987C97.1074 61.0791 98.0447 58.9353 98.6612 56.6602H51.168C51.7844 58.9353 52.7218 61.0791 53.9305 63.0404Z" fill="#D80027"/>
<path fill-rule="evenodd" clip-rule="evenodd" d="M63.9421 29.6416H61.7009C65.515 27.2238 70.044 25.8223 74.9025 25.8223V50.2796H50.3086C50.3086 49.2468 50.3737 48.2291 50.4987 47.23L51.7474 46.3278L53.832 47.8339L53.0357 45.3969L55.1204 43.8907H52.5437L51.8455 41.7538C52.0871 41.1075 52.3559 40.4743 52.6498 39.8552L53.832 40.7094L53.1984 38.7699C53.3884 38.4163 53.5867 38.0679 53.7934 37.7249L55.1204 36.7662H54.4023C55.7281 34.7813 57.3369 32.9999 59.1724 31.4795L58.4845 33.5848L60.5691 32.0787L62.6538 33.5848L61.8574 31.1478L63.9421 29.6416ZM60.5659 46.3278L62.6505 47.8339L61.8542 45.3969L63.9389 43.8908H61.3621L60.5659 41.4537L59.7697 43.8908H57.1929L59.2776 45.3969L58.4813 47.8339L60.5659 46.3278ZM61.8542 38.2715L62.6505 40.7085L60.5659 39.2024L58.4813 40.7085L59.2776 38.2715L57.1929 36.7653H59.7697L60.5659 34.3283L61.3621 36.7653H63.9389L61.8542 38.2715ZM69.3881 46.3278L71.4727 47.8339L70.6764 45.3969L72.7611 43.8908H70.1843L69.3881 41.4537L68.5919 43.8908H66.0151L68.0998 45.3969L67.3035 47.8339L69.3881 46.3278ZM70.6764 38.2715L71.4727 40.7085L69.3881 39.2024L67.3035 40.7085L68.0998 38.2715L66.0151 36.7653H68.5919L69.3881 34.3283L70.1843 36.7653H72.7611L70.6764 38.2715ZM71.4727 33.5855L70.6764 31.1484L72.7611 29.6423H70.1843L69.3881 27.2052L68.5919 29.6423H66.0151L68.0998 31.1484L67.3035 33.5855L69.3881 32.0793L71.4727 33.5855Z" fill="#0052B4"/>
<ellipse cx="42.9415" cy="50.2796" rx="24.5939" ry="24.4574" fill="#FFAD02"/>
<rect x="18.7757" y="25.9622" width="50.3729" height="50.5038" rx="25.1864" fill="#E51E30" stroke="white" stroke-width="1.06698"/>
<path d="M48.9553 51.9244L45.9342 52.1237L48.5096 44.876L40.6349 46.0715L39.793 54.166L41.675 54.0913L41.3283 63.3315L48.9553 51.9244Z" fill="white"/>
<path d="M40.5781 45.3971L48.4315 44.3538L44.7299 42.6398C44.7299 42.6398 45.2051 39.6341 42.504 38.5908L42.1788 39.6093C42.1788 39.6093 43.9296 39.9819 43.6795 42.7143L40.5781 45.3971Z" fill="white"/>
<defs>
<filter id="filter0_d_1053_8384" x="8.42055" y="156.912" width="226.444" height="82.906" filterUnits="userSpaceOnUse" color-interpolation-filters="sRGB">
<feFlood flood-opacity="0" result="BackgroundImageFix"/>
<feColorMatrix in="SourceAlpha" type="matrix" values="0 0 0 0 0 0 0 0 0 0 0 0 0 0 0 0 0 0 127 0" result="hardAlpha"/>
<feOffset dy="4.9496"/>
<feGaussianBlur stdDeviation="8.6618"/>
<feColorMatrix type="matrix" values="0 0 0 0 0.466667 0 0 0 0 0.466667 0 0 0 0 0.466667 0 0 0 0.09 0"/>
<feBlend mode="normal" in2="BackgroundImageFix" result="effect1_dropShadow_1053_8384"/>
<feBlend mode="normal" in="SourceGraphic" in2="effect1_dropShadow_1053_8384" result="shape"/>
</filter>
<filter id="filter1_d_1053_8384" x="210.116" y="156.912" width="228.919" height="82.906" filterUnits="userSpaceOnUse" color-interpolation-filters="sRGB">
<feFlood flood-opacity="0" result="BackgroundImageFix"/>
<feColorMatrix in="SourceAlpha" type="matrix" values="0 0 0 0 0 0 0 0 0 0 0 0 0 0 0 0 0 0 127 0" result="hardAlpha"/>
<feOffset dy="4.9496"/>
<feGaussianBlur stdDeviation="8.6618"/>
<feColorMatrix type="matrix" values="0 0 0 0 0.466667 0 0 0 0 0.466667 0 0 0 0 0.466667 0 0 0 0.09 0"/>
<feBlend mode="normal" in2="BackgroundImageFix" result="effect1_dropShadow_1053_8384"/>
<feBlend mode="normal" in="SourceGraphic" in2="effect1_dropShadow_1053_8384" result="shape"/>
</filter>
<linearGradient id="paint0_linear_1053_8384" x1="224.323" y1="129.552" x2="224.323" y2="165.177" gradientUnits="userSpaceOnUse">
<stop stop-color="#4C8AFE"/>
<stop offset="1" stop-color="#4C8AFE" stop-opacity="0"/>
</linearGradient>
</defs>
</svg>
