<svg fill="none" height="1784" viewBox="0 0 1601 1784" width="1601" xmlns="http://www.w3.org/2000/svg" xmlns:xlink="http://www.w3.org/1999/xlink"><filter id="a" color-interpolation-filters="sRGB" filterUnits="userSpaceOnUse" height="1846" width="1966" x="-967.812" y="47"><feFlood flood-opacity="0" result="BackgroundImageFix"/><feBlend in="SourceGraphic" in2="BackgroundImageFix" mode="normal" result="shape"/><feGaussianBlur result="effect1_foregroundBlur" stdDeviation="150"/></filter><filter id="b" color-interpolation-filters="sRGB" filterUnits="userSpaceOnUse" height="1716.59" width="2207.84" x="-20.8376" y="-135.364"><feFlood flood-opacity="0" result="BackgroundImageFix"/><feBlend in="SourceGraphic" in2="BackgroundImageFix" mode="normal" result="shape"/><feGaussianBlur result="effect1_foregroundBlur" stdDeviation="200"/></filter><filter id="c" color-interpolation-filters="sRGB" filterUnits="userSpaceOnUse" height="1173.59" width="1573.16" x="314.753" y="-28.814"><feFlood flood-opacity="0" result="BackgroundImageFix"/><feBlend in="SourceGraphic" in2="BackgroundImageFix" mode="normal" result="shape"/><feGaussianBlur result="effect1_foregroundBlur" stdDeviation="100"/></filter><filter id="d" color-interpolation-filters="sRGB" filterUnits="userSpaceOnUse" height="1037.62" width="2261.1" x="-613" y="382"><feFlood flood-opacity="0" result="BackgroundImageFix"/><feBlend in="SourceGraphic" in2="BackgroundImageFix" mode="normal" result="shape"/><feGaussianBlur result="effect1_foregroundBlur" stdDeviation="100"/></filter><filter id="e" color-interpolation-filters="sRGB" filterUnits="userSpaceOnUse" height="1130" width="1191" x="780.188" y="-295"><feFlood flood-opacity="0" result="BackgroundImageFix"/><feBlend in="SourceGraphic" in2="BackgroundImageFix" mode="normal" result="shape"/><feGaussianBlur result="effect1_foregroundBlur" stdDeviation="150"/></filter><mask id="f" height="1784" maskUnits="userSpaceOnUse" width="1677" x="-76" y="0"><path d="m0 0h1677v1784h-1677z" fill="#c4c4c4" transform="matrix(-1 0 0 1 1601 0)"/></mask><g mask="url(#f)"><g opacity=".5"><g filter="url(#a)"><ellipse fill="#0a3893" rx="683" ry="623" transform="matrix(-1 0 0 1 15.1882 970)"/></g><g filter="url(#b)"><ellipse fill="#0051e8" fill-opacity=".5" rx="651.829" ry="344.872" transform="matrix(-.983125 .182937 .182937 .983125 1083.08 722.933)"/></g><g filter="url(#c)"><path d="m595.188 713c559.262-29.512 731.502-556.5 926.002-541.5 244.5 18.856 198.94 513.161 0 701.5-234.5 222-1305.002-140-926.002-160z" fill="#001640"/></g><g filter="url(#d)"><path d="m1195.6 751.461c171.76 0 252.5 91.335 252.5 214.5 0 256.999-1516.1691 348.379-1745.767 134.059-168.735-157.513-147.098-379.305 30.763-458.059 201.0002-89 324.0209-70.354 521.5 0 164.772 58.701 218.436 113.996 399.5 163.5 169.475 46.335 388.934-54 541.504-54z" fill="#070636"/></g><g filter="url(#e)"><ellipse fill="#0a1426" rx="295.5" ry="265" transform="matrix(-1 0 0 1 1375.69 270)"/></g></g></g></svg>